<svg width="131" height="131" viewBox="0 0 131 131" fill="none" xmlns="http://www.w3.org/2000/svg">
<path d="M65.4909 0C29.373 0 0 29.373 0 65.4909C0 101.609 29.373 130.982 65.4909 130.982C101.609 130.982 130.982 101.609 130.982 65.4909C130.982 29.373 101.609 0 65.4909 0ZM106.178 98.5627C103.349 101.609 100.303 104.655 96.6045 107.701L96.3869 107.919C87.4663 114.446 76.805 117.927 65.4909 117.927C54.1769 117.927 43.5155 114.446 34.5949 107.919C30.896 104.873 27.6324 101.826 24.8039 98.5627C15.2304 87.6839 10.2261 75.2819 10.2261 62.2273C10.2261 49.1726 15.448 37.4234 20.4523 31.3312C20.4523 31.3312 20.6699 31.3312 20.6699 31.1136C20.6699 31.1136 20.6699 31.1136 20.8875 30.896H21.105C21.105 30.896 21.105 30.896 21.3226 30.896H21.5402H21.7578C22.1929 30.896 22.4105 31.3312 22.6281 31.5488V31.7664V31.9839C22.4105 42.6452 26.1094 50.0429 33.9422 55.4823L40.687 9.791C40.687 9.791 40.687 9.79099 40.687 9.57341V9.35585C40.687 9.35585 40.687 9.35584 40.9046 9.13826C40.9046 9.13826 40.9046 9.13828 41.1222 8.9207C41.1222 8.9207 41.3398 8.92069 41.3398 8.70311C41.3398 8.70311 41.3398 8.70311 41.5574 8.70311H41.7749H41.9925C41.9925 8.70311 41.9925 8.70311 42.2101 8.70311H42.4277C42.4277 8.70311 42.4277 8.70311 42.6453 8.70311H42.8628C42.8628 8.70311 42.8628 8.70312 43.0804 8.9207C43.0804 8.9207 43.0804 8.9207 43.298 8.9207L65.9261 36.9882L88.5541 8.9207C88.5541 8.9207 88.5541 8.9207 88.7717 8.9207C88.7717 8.9207 88.7717 8.92069 88.9893 8.70311H89.2069C89.2069 8.70311 89.2069 8.70311 89.4245 8.70311H89.642C89.642 8.70311 89.642 8.70311 89.8596 8.70311H90.0772H90.2948C90.2948 8.70311 90.2948 8.70311 90.5124 8.70311C90.5124 8.70311 90.7299 8.70312 90.7299 8.9207C90.7299 8.9207 90.7299 9.13826 90.9475 9.13826C90.9475 9.13826 90.9475 9.13827 91.1651 9.35585V9.57341C91.1651 9.57341 91.1651 9.57342 91.1651 9.791L97.91 55.4823C105.743 50.0429 109.442 42.4277 109.224 31.9839C109.224 31.9839 109.224 31.9839 109.224 31.7664V31.5488C109.442 31.1136 109.659 30.896 110.094 30.896C110.094 30.896 110.094 30.896 110.312 30.896H110.53C110.747 30.896 110.747 30.8961 110.965 31.1136L111.182 31.3312C115.969 36.9882 121.408 48.5198 121.408 62.0097C120.756 73.3237 117.057 86.1608 106.178 98.5627Z" fill="#004B2A"/>
<path d="M67.8845 97.4751L97.6927 59.399C103.35 55.9177 107.049 51.5662 109.442 46.3443C109.007 61.5747 99.4333 76.37 79.8513 91.1653L79.4162 91.6005C78.7634 92.0356 78.1107 92.4708 77.458 93.1235C77.2404 93.3411 77.0228 93.3411 76.8052 93.5587L76.5876 93.7763C76.1525 94.2114 75.4998 94.6466 74.847 94.8642C74.4119 95.0817 73.1064 96.1696 73.1064 96.1696C72.8889 96.3872 72.4537 96.6048 72.2361 96.8223C71.8009 97.0399 71.5833 97.2575 71.1482 97.4751L70.4955 97.9102L69.4076 98.563C68.7549 98.9981 68.3197 99.2157 67.667 99.6509V97.4751H67.8845Z" fill="#004B2A"/>
<path d="M67.8843 40.034L83.7675 20.452L67.8843 78.3277V40.034Z" fill="#004B2A"/>
<path d="M63.0979 114.011C53.5245 113.575 44.3862 110.312 36.771 104.655C33.2897 101.826 30.2437 98.7801 27.4151 95.734C18.4945 85.5079 13.9253 73.9762 13.9253 61.7919C13.9253 55.4821 15.2307 49.8251 16.7538 45.4735C16.7538 50.0427 17.6241 54.6118 19.1471 59.181C19.1471 59.181 19.1472 59.3985 19.3647 59.6161C19.5823 60.0513 19.5823 60.4864 19.7999 60.9216C19.7999 61.1392 20.0174 61.3567 20.0174 61.7919C20.235 62.227 20.235 62.4446 20.4526 62.8798L20.6702 63.3149C20.8878 63.5325 20.8878 63.7501 21.1053 64.1852C21.3229 64.4028 21.3229 64.838 21.5405 65.0555C21.7581 65.4907 21.9757 66.1435 22.4108 66.5786C22.4108 66.5786 22.6284 67.0137 22.846 67.2313C23.7163 68.7544 24.5866 70.0598 25.4569 71.5829L25.6745 71.8005C26.1096 72.4532 26.5448 73.1059 27.1976 73.7587C27.1976 73.7587 27.1976 73.9762 27.4151 73.9762C28.0679 74.629 28.503 75.4993 28.9381 76.152C31.3315 79.1981 34.1601 82.2442 37.2061 85.0727L37.4237 85.2903C38.0764 85.943 39.5994 87.2485 39.5994 87.2485C39.817 87.2485 39.817 87.4661 39.817 87.4661H40.0346C40.9049 88.1188 41.5577 88.7716 42.428 89.4243C44.1686 90.9473 46.1268 92.4704 47.8674 93.7758C48.085 93.9934 48.3026 94.211 48.7377 94.4285L50.6959 95.9516L51.7838 96.8219L52.4366 97.2571C52.8717 97.4746 53.0893 97.6922 53.5245 98.1274L53.9596 98.345C54.1772 98.5625 54.6123 98.7801 54.8299 98.9977C55.4826 99.4329 55.9178 99.868 56.5706 100.086C56.5706 100.086 57.6585 100.738 57.876 100.956C58.3112 101.173 58.7463 101.609 59.1814 101.826L60.2693 102.479C60.9221 102.914 61.5749 103.349 62.2276 103.784C62.2276 103.784 63.3154 104.437 63.533 104.655V114.011H63.0979Z" fill="#004B2A"/>
<path d="M51.5659 74.8468L37.4233 56.7879L42.6453 21.7578L60.0515 85.7257L51.5659 74.8468Z" fill="#004B2A"/>
</svg>
